<svg viewBox="0 0 968 129" fill="none" xmlns="http://www.w3.org/2000/svg">
<path d="M27.008 114L1.92 24.4H20.48L37.632 90.832L56.32 24.4H71.424L90.24 90.832L107.392 24.4H125.952L100.864 114H80.768L63.872 54.864L47.104 114H27.008ZM188.67 114L183.294 97.872H147.582L142.206 114H123.134L154.494 24.4H176.382L207.87 114H188.67ZM153.214 81.36H177.79L165.502 44.752L153.214 81.36ZM234.234 97.104H268.41V114H216.57V24.4H234.234V97.104ZM296.109 97.104H330.285V114H278.445V24.4H296.109V97.104ZM373.728 24.4C382.347 24.4 389.6 27.3013 395.488 33.104C401.376 38.9067 404.32 46.032 404.32 54.48C404.32 62.928 401.376 70.0533 395.488 75.856C389.6 81.6587 382.347 84.56 373.728 84.56H357.984V114H340.32V24.4H373.728ZM373.728 68.048C377.483 68.048 380.597 66.768 383.072 64.208C385.547 61.5627 386.784 58.32 386.784 54.48C386.784 50.5547 385.547 47.312 383.072 44.752C380.597 42.192 377.483 40.912 373.728 40.912H357.984V68.048H373.728ZM464.295 114L458.919 97.872H423.207L417.831 114H398.759L430.119 24.4H452.007L483.495 114H464.295ZM428.839 81.36H453.415L441.127 44.752L428.839 81.36ZM525.603 24.4C534.222 24.4 541.475 27.3013 547.363 33.104C553.251 38.9067 556.195 46.032 556.195 54.48C556.195 62.928 553.251 70.0533 547.363 75.856C541.475 81.6587 534.222 84.56 525.603 84.56H509.859V114H492.195V24.4H525.603ZM525.603 68.048C529.358 68.048 532.472 66.768 534.947 64.208C537.422 61.5627 538.659 58.32 538.659 54.48C538.659 50.5547 537.422 47.312 534.947 44.752C532.472 42.192 529.358 40.912 525.603 40.912H509.859V68.048H525.603ZM585.359 97.104H623.119V114H567.695V24.4H622.479V41.296H585.359V60.368H619.279V77.008H585.359V97.104ZM684.722 114L666.674 82.896H653.234V114H635.57V24.4H671.41C679.687 24.4 686.727 27.3013 692.53 33.104C698.333 38.9067 701.234 45.904 701.234 54.096C701.234 59.6427 699.655 64.8053 696.498 69.584C693.341 74.2773 689.159 77.8187 683.954 80.208L703.794 114H684.722ZM653.234 40.912V67.408H671.41C674.738 67.408 677.597 66.128 679.986 63.568C682.375 60.9227 683.57 57.7653 683.57 54.096C683.57 50.4267 682.375 47.312 679.986 44.752C677.597 42.192 674.738 40.912 671.41 40.912H653.234ZM743.412 115.792C734.537 115.792 727.071 113.829 721.012 109.904C714.953 105.893 710.687 100.475 708.212 93.648L723.316 84.816C726.815 93.9467 733.684 98.512 743.924 98.512C748.873 98.512 752.5 97.616 754.804 95.824C757.108 94.032 758.26 91.7707 758.26 89.04C758.26 85.8827 756.852 83.4507 754.036 81.744C751.22 79.952 746.185 78.032 738.932 75.984C734.921 74.7893 731.508 73.5947 728.692 72.4C725.961 71.2053 723.188 69.6267 720.372 67.664C717.641 65.616 715.551 63.056 714.1 59.984C712.649 56.912 711.924 53.328 711.924 49.232C711.924 41.1253 714.783 34.6827 720.5 29.904C726.303 25.04 733.257 22.608 741.364 22.608C748.617 22.608 754.975 24.4 760.436 27.984C765.983 31.4827 770.292 36.3893 773.364 42.704L758.516 51.28C754.932 43.6 749.215 39.76 741.364 39.76C737.695 39.76 734.793 40.6133 732.66 42.32C730.612 43.9413 729.588 46.0747 729.588 48.72C729.588 51.536 730.74 53.84 733.044 55.632C735.433 57.3387 739.956 59.216 746.612 61.264C749.343 62.1173 751.391 62.8 752.756 63.312C754.207 63.7387 756.127 64.464 758.516 65.488C760.991 66.4267 762.868 67.3227 764.148 68.176C765.513 69.0293 767.049 70.1813 768.756 71.632C770.463 73.0827 771.743 74.576 772.596 76.112C773.535 77.648 774.303 79.5253 774.9 81.744C775.583 83.8773 775.924 86.224 775.924 88.784C775.924 97.0613 772.895 103.632 766.836 108.496C760.863 113.36 753.055 115.792 743.412 115.792Z" fill="white"/>
<path d="M799.6 24.2V64.776H820.08V69H795.12V24.2H799.6ZM826.495 69V24.2H830.975V69H826.495ZM837.405 24.2H869.405V28.424H855.645V69H851.165V28.424H837.405V24.2ZM880.288 48.52V64.776H902.048V69H875.808V24.2H901.728V28.424H880.288V44.296H900.128V48.52H880.288Z" fill="#5D96FF"/>
</svg>
